# xmcd
#
# Track frame offsets:
#	150
#	18892
#	34942
#	55035
#	70146
#	106511
#	139955
#	155053
#	157458
#	180761
#
# Disc length: 2636 seconds
#
# Revision: 0
# Processed by: cddbd v1.5.2PL0 Copyright (c) Steve Scherf et al.
# Submitted via: EasyCDDAExtractor 10.0.2.1
#
DISCID=7d0a4a0a
DTITLE=Nico - Chelsea Girl
DYEAR=1967
DGENRE=Blues
TTITLE0=The Fairest of the Seasons
TTITLE1=These Days
TTITLE2=Little Sister
TTITLE3=Winter Song
TTITLE4=It Was A Pleasure Then
TTITLE5=Chelsea Girls
TTITLE6=I'll Keep It With Mine
TTITLE7=Somewhere There's A Feather
TTITLE8=Wrap Your Troubles In Dreams
TTITLE9=Eulogy To Lenny Bruce
EXTD=
EXTT0=
EXTT1=
EXTT2=
EXTT3=
EXTT4=
EXTT5=
EXTT6=
EXTT7=
EXTT8=
EXTT9=
PLAYORDER=
